<svg xmlns="http://www.w3.org/2000/svg" viewBox="0 0 64 64">
  <rect x="4" y="4" width="56" height="56" rx="14" fill="#07101a"/>
  <g fill="#ead7b4">
    <path d="M15 18 32 10v22H13l1-7Z"/>
    <path d="M32 18h14c7 0 10 4 10 11v3H32Z"/>
    <path d="M14 34h18v21c-5-8-11-11-18-10Z"/>
    <path d="M32 34h23c-2 12-10 21-23 24Z"/>
    <path d="M45 11 36 18h9l8-6" fill="none" stroke="#ead7b4" stroke-width="4" stroke-linecap="round" stroke-linejoin="round"/>
    <circle cx="53" cy="11" r="4.25"/>
  </g>
  <g fill="none" stroke="#07101a" stroke-width="2.8" stroke-linecap="round" stroke-linejoin="round">
    <path d="M16 18 31 31"/>
    <path d="M14 25 32 10"/>
    <path d="M20 32 31 14"/>
    <path d="m14 32 5-12 7 12"/>
    <path d="M32 18h5"/>
    <path d="M32 32h14"/>
    <path d="M46 19c-4 3-6 7-6 13"/>
    <path d="M14 45c8-2 14 2 18 10"/>
    <path d="M14 50c8-2 14 1 18 7"/>
    <path d="M42 42c3-3 8-3 11 0"/>
    <path d="M41 50c4 1 8-1 10-5"/>
  </g>
  <g fill="#07101a">
    <circle cx="50" cy="25" r="2.5"/>
    <circle cx="50" cy="31" r="2.5"/>
  </g>
  <path d="M32 10v48M13 32h43" fill="none" stroke="#07101a" stroke-width="1.9" stroke-linecap="round" stroke-linejoin="round"/>
</svg>
